<svg width="32" height="32" viewBox="0 0 32 32" fill="none" xmlns="http://www.w3.org/2000/svg">
<path fill-rule="evenodd" clip-rule="evenodd" d="M19.1889 1.25485C17.3702 -0.418284 14.6297 -0.418284 12.811 1.25485L0.537044 12.5467C-0.12342 13.1543 -0.182908 14.201 0.404164 14.8846C0.991235 15.568 2.00255 15.6296 2.66299 15.0221L3.20002 14.5281V23.8291C3.19994 25.2972 3.19987 26.562 3.33144 27.5749C3.47245 28.6604 3.79045 29.701 4.6059 30.5449C5.42136 31.3889 6.42672 31.718 7.47555 31.864C8.4542 32.0002 9.6763 32 11.0947 32H20.9053C22.3237 32 23.5457 32.0002 24.5245 31.864C25.5733 31.718 26.5787 31.3889 27.3941 30.5449C28.2096 29.701 28.5275 28.6604 28.6686 27.5749C28.8001 26.562 28.8001 25.2972 28.8 23.8293V14.5281L29.3369 15.0221C29.9974 15.6296 31.0088 15.568 31.5958 14.8846C32.1828 14.201 32.1235 13.1543 31.463 12.5467L19.1889 1.25485ZM16 22.0642C15.1163 22.0642 14.4 22.8056 14.4 23.7202V27.0321C14.4 27.9467 13.6837 28.6881 12.8 28.6881C11.9163 28.6881 11.2 27.9467 11.2 27.0321V23.7202C11.2 20.9764 13.3489 18.7523 16 18.7523C18.651 18.7523 20.8 20.9764 20.8 23.7202V27.0321C20.8 27.9467 20.0837 28.6881 19.2 28.6881C18.3163 28.6881 17.6 27.9467 17.6 27.0321V23.7202C17.6 22.8056 16.8837 22.0642 16 22.0642Z" fill="#323232"/>
</svg>
