<svg width="32" height="32" viewBox="0 0 32 32" fill="none" xmlns="http://www.w3.org/2000/svg">
<path fill-rule="evenodd" clip-rule="evenodd" d="M12.8 0C10.149 0 8 2.14904 8 4.8V6.4H6.34883C5.64701 6.39998 5.04139 6.39997 4.54019 6.43416C4.01247 6.47016 3.48461 6.54937 2.96312 6.76537C1.78699 7.25254 0.852563 8.18699 0.365396 9.36312C0.14938 9.8846 0.0701797 10.4125 0.0341637 10.9402C-2.82317e-05 11.4414 -1.20845e-05 12.047 3.91545e-06 12.7488V24.1053C-7.60845e-05 25.5237 -0.000140119 26.7457 0.131444 27.7245C0.272452 28.7733 0.590436 29.7787 1.40589 30.5941C2.22136 31.4096 3.22672 31.7275 4.27554 31.8686C5.25419 32.0001 6.4763 32.0001 7.89467 32H24.1053C25.5237 32.0001 26.7458 32.0001 27.7245 31.8686C28.7733 31.7275 29.7787 31.4096 30.5941 30.5941C31.4096 29.7787 31.7275 28.7733 31.8686 27.7245C32.0001 26.7457 32.0001 25.5237 32 24.1053V12.7488C32 12.047 32 11.4414 31.9659 10.9402C31.9299 10.4125 31.8505 9.8846 31.6345 9.36312C31.1475 8.18699 30.2129 7.25254 29.0369 6.76537C28.5153 6.54937 27.9875 6.47016 27.4598 6.43416C26.9585 6.39997 26.3531 6.39998 25.6512 6.4H24V4.8C24 2.14904 21.851 0 19.2 0H12.8ZM20.8 6.4V4.8C20.8 3.91635 20.0837 3.2 19.2 3.2H12.8C11.9164 3.2 11.2 3.91635 11.2 4.8V6.4H20.8ZM13.6 17.6C13.6 16.7163 14.3163 16 15.2 16H16.8C17.6837 16 18.4 16.7163 18.4 17.6C18.4 18.4837 17.6837 19.2 16.8 19.2H15.2C14.3163 19.2 13.6 18.4837 13.6 17.6ZM3.70691 18.1715C4.35229 17.568 5.36478 17.6018 5.9684 18.2472C8.31587 20.757 11.916 22.4 16 22.4C20.084 22.4 23.6842 20.757 26.0317 18.2472C26.6352 17.6018 27.6477 17.568 28.2931 18.1715C28.9384 18.7752 28.9723 19.7877 28.3686 20.4331C25.3926 23.6149 20.9349 25.6 16 25.6C11.0652 25.6 6.60734 23.6149 3.63133 20.4331C3.02771 19.7877 3.06155 18.7752 3.70691 18.1715Z" fill="#323232"/>
</svg>
