<svg width="32" height="32" viewBox="0 0 32 32" fill="none" xmlns="http://www.w3.org/2000/svg">
<path fill-rule="evenodd" clip-rule="evenodd" d="M8.40011 0.620512C10.478 0.15872 12.9989 0 16 0C19.0011 0 21.5219 0.15872 23.5998 0.620512C25.696 1.08635 27.4381 1.8816 28.7782 3.22173C30.1184 4.56186 30.9136 6.30403 31.3795 8.40011C31.8413 10.478 32 12.9989 32 16C32 19.0011 31.8413 21.5219 31.3795 23.5998C30.9136 25.696 30.1184 27.4381 28.7782 28.7782C27.4381 30.1184 25.696 30.9136 23.5998 31.3795C21.5219 31.8413 19.0011 32 16 32C12.9989 32 10.478 31.8413 8.40011 31.3795C6.30403 30.9136 4.56186 30.1184 3.22173 28.7782C1.8816 27.4381 1.08635 25.696 0.620512 23.5998C0.15872 21.5219 0 19.0011 0 16C0 12.9989 0.15872 10.478 0.620512 8.40011C1.08635 6.30403 1.8816 4.56186 3.22173 3.22173C4.56186 1.8816 6.30403 1.08635 8.40011 0.620512ZM16 6.4C12.4654 6.4 9.6 9.26538 9.6 12.8C9.6 16.3346 12.4654 19.2 16 19.2C19.5346 19.2 22.4 16.3346 22.4 12.8C22.4 9.26538 19.5346 6.4 16 6.4ZM26.204 24.4707C26.7685 25.3912 26.5688 26.608 25.659 27.1896C24.8318 27.7186 23.8653 28.0424 22.9054 28.2557C21.1715 28.641 18.9278 28.8 15.9997 28.8C13.0717 28.8 10.8279 28.641 9.0941 28.2557C8.15226 28.0464 7.20328 27.731 6.3861 27.2192C5.45995 26.6392 5.25637 25.4058 5.83478 24.4786C6.50085 23.4109 7.41882 22.572 8.65411 21.975C10.5284 21.0694 12.9851 20.8 15.9994 20.8C19.0034 20.8 21.4574 21.0477 23.3291 21.9275C24.5963 22.5232 25.5315 23.3742 26.204 24.4707Z" fill="#323232"/>
</svg>
