<svg width="42" height="42" viewBox="0 0 42 42" fill="none" xmlns="http://www.w3.org/2000/svg">
<path d="M29.5855 12.5707C29.5938 12.5707 29.605 12.5707 29.6161 12.5707C29.9076 12.5707 30.1781 12.6614 30.3998 12.8175L30.3956 12.8147C30.5574 12.9556 30.6661 13.1536 30.6926 13.3767V13.3809C30.7205 13.551 30.7359 13.7462 30.7359 13.9456C30.7359 14.0363 30.7331 14.1255 30.7261 14.2147V14.2022C30.4124 17.5056 29.0514 25.5165 28.3598 29.2145C28.0669 30.7805 27.491 31.3048 26.9333 31.355C25.7215 31.4679 24.8012 30.5546 23.6271 29.7849C21.7892 28.5787 20.7504 27.8285 18.9669 26.653C16.9046 25.2962 18.2418 24.5474 19.4159 23.3287C19.7241 23.008 25.0661 18.1484 25.1707 17.7078C25.1763 17.6813 25.1791 17.652 25.1791 17.6213C25.1791 17.5125 25.1386 17.4135 25.0731 17.3382C25.0006 17.2908 24.91 17.2643 24.8151 17.2643C24.7524 17.2643 24.6924 17.2769 24.6367 17.2978L24.6394 17.2964C24.4554 17.3382 21.5197 19.2784 15.8323 23.1167C15.2118 23.6062 14.4281 23.9157 13.5747 23.952H13.5663C12.3574 23.8056 11.26 23.5365 10.2183 23.153L10.3215 23.1865C9.01355 22.7598 7.9747 22.5353 8.06394 21.8129C8.11136 21.4374 8.62915 21.053 9.61733 20.6598C15.7045 18.0076 19.7636 16.2594 21.7948 15.4153C24.0357 14.2259 26.6335 13.247 29.3651 12.6125L29.5841 12.5693L29.5855 12.5707ZM20.9512 0C9.3747 0.0278884 0 9.41932 0 21C0 32.5974 9.4012 42 21 42C32.5988 42 42 32.5988 42 21C42 9.41932 32.6253 0.0278884 21.0516 0H21.0488C21.0163 0 20.9837 0 20.9512 0Z" fill="#333333"/>
</svg>
