<svg width="32" height="27" viewBox="0 0 32 27" fill="none" xmlns="http://www.w3.org/2000/svg">
<path fill-rule="evenodd" clip-rule="evenodd" d="M8 13.071C8 12.1687 8.71635 11.4371 9.6 11.4371H9.616C10.4996 11.4371 11.216 12.1687 11.216 13.071C11.216 13.9734 10.4996 14.7049 9.616 14.7049H9.6C8.71635 14.7049 8 13.9734 8 13.071ZM14.4 13.071C14.4 12.1687 15.1163 11.4371 16 11.4371H16.016C16.8997 11.4371 17.616 12.1687 17.616 13.071C17.616 13.9734 16.8997 14.7049 16.016 14.7049H16C15.1163 14.7049 14.4 13.9734 14.4 13.071ZM22.4 11.4371C21.5163 11.4371 20.8 12.1687 20.8 13.071C20.8 13.9734 21.5163 14.7049 22.4 14.7049H22.416C23.2997 14.7049 24.016 13.9734 24.016 13.071C24.016 12.1687 23.2997 11.4371 22.416 11.4371H22.4ZM7.89467 3.99838e-06C7.92966 3.99838e-06 7.96478 3.99838e-06 8 3.99838e-06H24.1053C25.5237 -7.76954e-05 26.7458 -0.000143096 27.7245 0.134227C28.7733 0.27822 29.7787 0.602937 30.5941 1.43566C31.4096 2.2684 31.7275 3.29504 31.8686 4.36606C32.0002 5.36546 32.0002 6.61344 32 8.06188V18.0802C32.0002 19.5286 32.0002 20.7765 31.8686 21.776C31.7275 22.847 31.4096 23.8737 30.5941 24.7063C29.7787 25.5391 28.7733 25.8638 27.7245 26.0079C26.7458 26.1422 25.5237 26.1422 24.1053 26.142H19.2C19.0182 26.142 18.8549 26.142 18.2919 26.142H13.471C12.5 26.142 12.5 26.142 11.216 26.142H8C6.76167 26.142 5.50589 26.1768 4.27554 26.0079C3.22672 25.8638 2.22136 25.5391 1.40589 24.7063C0.590436 23.8737 0.272452 22.847 0.131444 21.776C-0.000140116 20.7765 -7.60845e-05 19.5286 3.91545e-06 18.0802V8.16938C3.91545e-06 8.13342 3.91545e-06 8.09756 3.91545e-06 8.06183C-7.60845e-05 6.61343 -0.000140116 5.36544 0.131444 4.36606C0.272452 3.29504 0.590436 2.2684 1.40589 1.43566C2.22136 0.602937 3.22672 0.27822 4.27554 0.134227C5.25419 -0.000143096 6.47631 -7.76954e-05 7.89467 3.99838e-06Z" fill="#323232"/>
</svg>
