<svg width="48" height="48" viewBox="0 0 48 48" fill="none" xmlns="http://www.w3.org/2000/svg">
<path fill-rule="evenodd" clip-rule="evenodd" d="M0 24C0 10.7452 10.7452 0 24 0C37.2547 0 48 10.7452 48 24C48 37.2547 37.2547 48 24 48C10.7452 48 0 37.2547 0 24ZM33.197 30.1313C32.4617 31.2341 30.9715 31.5322 29.8687 30.797L23.6282 26.6366C22.361 25.7918 21.6 24.3698 21.6 22.847V22.8V12C21.6 10.6745 22.6745 9.6 24 9.6C25.3255 9.6 26.4 10.6745 26.4 12V22.7155L32.5313 26.803C33.6341 27.5383 33.9322 29.0285 33.197 30.1313Z" fill="#323232"/>
</svg>
